<svg width="53" height="47" viewBox="0 0 53 47" fill="none" xmlns="http://www.w3.org/2000/svg">
<path fill-rule="evenodd" clip-rule="evenodd" d="M34.039 0L23.9529 14.5264L20.1157 9H1.88672L23.9337 40.7529L23.947 40.7338L23.9661 40.7613L52.268 0H34.039ZM12.897 30.4494L1.4054 47H19.6344L22.0085 43.5807L12.897 30.4494ZM25.8913 43.5723L28.2713 47H46.5003L35.0028 30.4409L25.8913 43.5723Z" fill="#2CB774"/>
<path fill-rule="evenodd" clip-rule="evenodd" d="M34.039 0L23.9529 14.5264L20.1157 9H1.88672L23.9337 40.7529L23.947 40.7338L23.9661 40.7613L52.268 0H34.039ZM12.897 30.4494L1.4054 47H19.6344L22.0085 43.5807L12.897 30.4494ZM25.8913 43.5723L28.2713 47H46.5003L35.0028 30.4409L25.8913 43.5723Z" fill="#2CB774"/>
<path fill-rule="evenodd" clip-rule="evenodd" d="M20.3439 47L23 43.274L12.8314 29L-9.53674e-05 47H20.3439Z" fill="#0A3E64"/>
<path fill-rule="evenodd" clip-rule="evenodd" d="M27.6561 47L25 43.274L35.1686 29L48.0001 47H27.6561Z" fill="#0A3E64"/>
</svg>
