<svg width="225" height="60" viewBox="0 0 225 60" fill="none" xmlns="http://www.w3.org/2000/svg">
<path d="M91.8047 20.3906L80.7656 54H74.0391L63.0469 20.3906H70.6875L77.3906 42.8203L84.1172 20.3906H91.8047ZM224.062 54H216.234L211.242 46.3125L206.203 54H198.375L207.539 41.1328L198.375 28.7578H206.203L211.242 35.9531L216.234 28.7578H224.062L214.875 41.1328L224.062 54Z" fill="#2CB774"/>
<path d="M104.344 47.8594C104.594 47.9375 104.844 47.9922 105.094 48.0234C105.344 48.0391 105.594 48.0469 105.844 48.0469C106.469 48.0469 107.07 47.9609 107.648 47.7891C108.227 47.6172 108.766 47.375 109.266 47.0625C109.781 46.7344 110.234 46.3438 110.625 45.8906C111.031 45.4219 111.359 44.9062 111.609 44.3438L116.297 49.0547C115.703 49.8984 115.016 50.6562 114.234 51.3281C113.469 52 112.633 52.5703 111.727 53.0391C110.836 53.5078 109.891 53.8594 108.891 54.0938C107.906 54.3438 106.891 54.4688 105.844 54.4688C104.078 54.4688 102.414 54.1406 100.852 53.4844C99.3047 52.8281 97.9453 51.9141 96.7734 50.7422C95.6172 49.5703 94.7031 48.1797 94.0312 46.5703C93.3594 44.9453 93.0234 43.1641 93.0234 41.2266C93.0234 39.2422 93.3594 37.4297 94.0312 35.7891C94.7031 34.1484 95.6172 32.75 96.7734 31.5938C97.9453 30.4375 99.3047 29.5391 100.852 28.8984C102.414 28.2578 104.078 27.9375 105.844 27.9375C106.891 27.9375 107.914 28.0625 108.914 28.3125C109.914 28.5625 110.859 28.9219 111.75 29.3906C112.656 29.8594 113.5 30.4375 114.281 31.125C115.062 31.7969 115.75 32.5547 116.344 33.3984L104.344 47.8594ZM107.625 34.6641C107.328 34.5547 107.031 34.4844 106.734 34.4531C106.453 34.4219 106.156 34.4062 105.844 34.4062C104.969 34.4062 104.141 34.5703 103.359 34.8984C102.594 35.2109 101.922 35.6641 101.344 36.2578C100.781 36.8516 100.336 37.5703 100.008 38.4141C99.6797 39.2422 99.5156 40.1797 99.5156 41.2266C99.5156 41.4609 99.5234 41.7266 99.5391 42.0234C99.5703 42.3203 99.6094 42.625 99.6562 42.9375C99.7188 43.2344 99.7891 43.5234 99.8672 43.8047C99.9453 44.0859 100.047 44.3359 100.172 44.5547L107.625 34.6641ZM125.977 54H119.578V28.8984H121.125L123.234 31.3359C124.266 30.3984 125.43 29.6797 126.727 29.1797C128.039 28.6641 129.406 28.4062 130.828 28.4062C132.359 28.4062 133.805 28.7031 135.164 29.2969C136.523 29.875 137.711 30.6797 138.727 31.7109C139.742 32.7266 140.539 33.9219 141.117 35.2969C141.711 36.6562 142.008 38.1094 142.008 39.6562V54H135.609V39.6562C135.609 39 135.484 38.3828 135.234 37.8047C134.984 37.2109 134.641 36.6953 134.203 36.2578C133.766 35.8203 133.258 35.4766 132.68 35.2266C132.102 34.9766 131.484 34.8516 130.828 34.8516C130.156 34.8516 129.523 34.9766 128.93 35.2266C128.336 35.4766 127.82 35.8203 127.383 36.2578C126.945 36.6953 126.602 37.2109 126.352 37.8047C126.102 38.3828 125.977 39 125.977 39.6562V54ZM170.836 54H169.289L166.805 50.5547C166.195 51.1016 165.547 51.6172 164.859 52.1016C164.188 52.5703 163.477 52.9844 162.727 53.3438C161.977 53.6875 161.203 53.9609 160.406 54.1641C159.625 54.3672 158.828 54.4688 158.016 54.4688C156.25 54.4688 154.586 54.1406 153.023 53.4844C151.477 52.8125 150.117 51.8906 148.945 50.7188C147.789 49.5312 146.875 48.1328 146.203 46.5234C145.531 44.8984 145.195 43.1328 145.195 41.2266C145.195 39.3359 145.531 37.5781 146.203 35.9531C146.875 34.3281 147.789 32.9219 148.945 31.7344C150.117 30.5469 151.477 29.6172 153.023 28.9453C154.586 28.2734 156.25 27.9375 158.016 27.9375C158.578 27.9375 159.156 27.9844 159.75 28.0781C160.359 28.1719 160.945 28.3281 161.508 28.5469C162.086 28.75 162.625 29.0234 163.125 29.3672C163.625 29.7109 164.047 30.1328 164.391 30.6328V18.9141H170.836V54ZM164.391 41.2266C164.391 40.3516 164.219 39.5078 163.875 38.6953C163.547 37.8672 163.094 37.1406 162.516 36.5156C161.938 35.875 161.258 35.3672 160.477 34.9922C159.711 34.6016 158.891 34.4062 158.016 34.4062C157.141 34.4062 156.312 34.5625 155.531 34.875C154.766 35.1875 154.094 35.6406 153.516 36.2344C152.953 36.8125 152.508 37.5234 152.18 38.3672C151.852 39.2109 151.688 40.1641 151.688 41.2266C151.688 42.1484 151.852 43.0234 152.18 43.8516C152.508 44.6797 152.953 45.4062 153.516 46.0312C154.094 46.6562 154.766 47.1484 155.531 47.5078C156.312 47.8672 157.141 48.0469 158.016 48.0469C158.891 48.0469 159.711 47.8594 160.477 47.4844C161.258 47.0938 161.938 46.5859 162.516 45.9609C163.094 45.3203 163.547 44.5938 163.875 43.7812C164.219 42.9531 164.391 42.1016 164.391 41.2266ZM185.719 47.8594C185.969 47.9375 186.219 47.9922 186.469 48.0234C186.719 48.0391 186.969 48.0469 187.219 48.0469C187.844 48.0469 188.445 47.9609 189.023 47.7891C189.602 47.6172 190.141 47.375 190.641 47.0625C191.156 46.7344 191.609 46.3438 192 45.8906C192.406 45.4219 192.734 44.9062 192.984 44.3438L197.672 49.0547C197.078 49.8984 196.391 50.6562 195.609 51.3281C194.844 52 194.008 52.5703 193.102 53.0391C192.211 53.5078 191.266 53.8594 190.266 54.0938C189.281 54.3438 188.266 54.4688 187.219 54.4688C185.453 54.4688 183.789 54.1406 182.227 53.4844C180.68 52.8281 179.32 51.9141 178.148 50.7422C176.992 49.5703 176.078 48.1797 175.406 46.5703C174.734 44.9453 174.398 43.1641 174.398 41.2266C174.398 39.2422 174.734 37.4297 175.406 35.7891C176.078 34.1484 176.992 32.75 178.148 31.5938C179.32 30.4375 180.68 29.5391 182.227 28.8984C183.789 28.2578 185.453 27.9375 187.219 27.9375C188.266 27.9375 189.289 28.0625 190.289 28.3125C191.289 28.5625 192.234 28.9219 193.125 29.3906C194.031 29.8594 194.875 30.4375 195.656 31.125C196.438 31.7969 197.125 32.5547 197.719 33.3984L185.719 47.8594ZM189 34.6641C188.703 34.5547 188.406 34.4844 188.109 34.4531C187.828 34.4219 187.531 34.4062 187.219 34.4062C186.344 34.4062 185.516 34.5703 184.734 34.8984C183.969 35.2109 183.297 35.6641 182.719 36.2578C182.156 36.8516 181.711 37.5703 181.383 38.4141C181.055 39.2422 180.891 40.1797 180.891 41.2266C180.891 41.4609 180.898 41.7266 180.914 42.0234C180.945 42.3203 180.984 42.625 181.031 42.9375C181.094 43.2344 181.164 43.5234 181.242 43.8047C181.32 44.0859 181.422 44.3359 181.547 44.5547L189 34.6641Z" fill="#0A3E64"/>
<path fill-rule="evenodd" clip-rule="evenodd" d="M35.039 11L24.9529 25.5264L21.1157 20H2.88672L24.9337 51.7529L24.947 51.7338L24.9661 51.7613L53.268 11H35.039ZM13.897 41.4494L2.4054 58H20.6344L23.0085 54.5807L13.897 41.4494ZM26.8913 54.5723L29.2713 58H47.5003L36.0028 41.4409L26.8913 54.5723Z" fill="#2CB774"/>
<path fill-rule="evenodd" clip-rule="evenodd" d="M35.039 11L24.9529 25.5264L21.1157 20H2.88672L24.9337 51.7529L24.947 51.7338L24.9661 51.7613L53.268 11H35.039ZM13.897 41.4494L2.4054 58H20.6344L23.0085 54.5807L13.897 41.4494ZM26.8913 54.5723L29.2713 58H47.5003L36.0028 41.4409L26.8913 54.5723Z" fill="#2CB774"/>
<path fill-rule="evenodd" clip-rule="evenodd" d="M21.3439 58L24 54.274L13.8314 40L0.999905 58H21.3439Z" fill="#0A3E64"/>
<path fill-rule="evenodd" clip-rule="evenodd" d="M28.6561 58L26 54.274L36.1686 40L49.0001 58H28.6561Z" fill="#0A3E64"/>
</svg>
